<?xml version="1.0" standalone="no"?>
<!DOCTYPE svg PUBLIC "-//W3C//DTD SVG 1.1//EN" "http://www.w3.org/Graphics/SVG/1.1/DTD/svg11.dtd" >
<svg xmlns="http://www.w3.org/2000/svg" xmlns:xlink="http://www.w3.org/1999/xlink" version="1.1" viewBox="-10 0 2068 2048" width="18" height="18">
   <path fill="#000000"
d="M1024 0q141 0 272 36.5t245 103t207.5 160t160 207.5t103 245t36.5 272t-36.5 272t-103 245t-160 207.5t-207.5 160t-245 103t-272 36.5q-53 0 -99.5 -20.5t-81 -55t-55 -81t-20.5 -99.5q0 -49 9.5 -85.5t23.5 -66.5t31 -56t31 -52.5t23.5 -56t9.5 -67.5q0 -52 -20.5 -99
t-55 -81.5t-81.5 -55t-99 -20.5q-38 0 -67.5 9.5t-56 23.5t-52.5 31t-56 31t-67 23.5t-85 9.5q-53 0 -99.5 -20.5t-81 -55t-55 -81t-20.5 -99.5q0 -141 36.5 -272t103 -245t160 -207.5t207.5 -160t244.5 -103t272.5 -36.5zM1024 1920q123 0 237.5 -32t214 -90.5
t181.5 -140.5t140.5 -181.5t90.5 -214t32 -237.5t-32 -237.5t-90.5 -214t-140.5 -181.5t-181.5 -140.5t-214 -90.5t-237.5 -32t-237.5 32t-214 90.5t-181.5 140.5t-140.5 181.5t-90.5 214t-32 237.5q0 27 10 50t27.5 40.5t40.5 27.5t50 10q38 0 67.5 -9.5t56 -23.5t52 -31
t55 -31t66.5 -23.5t87 -9.5q80 0 150 30t122 82t82 122t30 150q0 49 -9.5 86.5t-23.5 67t-31 55t-31 52t-23.5 56t-9.5 67.5q0 27 10 50t27.5 40.5t40.5 27.5t50 10zM512 640q27 0 50 10t40.5 27.5t27.5 40.5t10 50t-10 50t-27.5 40.5t-40.5 27.5t-50 10t-50 -10
t-40.5 -27.5t-27.5 -40.5t-10 -50t10 -50t27.5 -40.5t40.5 -27.5t50 -10zM896 384q27 0 50 10t40.5 27.5t27.5 40.5t10 50t-10 50t-27.5 40.5t-40.5 27.5t-50 10t-50 -10t-40.5 -27.5t-27.5 -40.5t-10 -50t10 -50t27.5 -40.5t40.5 -27.5t50 -10zM1408 768q-27 0 -50 -10
t-40.5 -27.5t-27.5 -40.5t-10 -50t10 -50t27.5 -40.5t40.5 -27.5t50 -10t50 10t40.5 27.5t27.5 40.5t10 50t-10 50t-27.5 40.5t-40.5 27.5t-50 10zM1536 1024q27 0 50 10t40.5 27.5t27.5 40.5t10 50t-10 50t-27.5 40.5t-40.5 27.5t-50 10t-50 -10t-40.5 -27.5t-27.5 -40.5
t-10 -50t10 -50t27.5 -40.5t40.5 -27.5t50 -10zM1280 1408q27 0 50 10t40.5 27.5t27.5 40.5t10 50t-10 50t-27.5 40.5t-40.5 27.5t-50 10t-50 -10t-40.5 -27.5t-27.5 -40.5t-10 -50t10 -50t27.5 -40.5t40.5 -27.5t50 -10z" />
</svg>
