<?xml version="1.0" standalone="no"?>
<!DOCTYPE svg PUBLIC "-//W3C//DTD SVG 1.1//EN" "http://www.w3.org/Graphics/SVG/1.1/DTD/svg11.dtd" >
<svg xmlns="http://www.w3.org/2000/svg" xmlns:xlink="http://www.w3.org/1999/xlink" version="1.1" viewBox="-10 0 2068 2048" width="18" height="18">
   <path fill="#000000"
d="M1024 0q141 0 272 36.5t245 103t207.5 160t160 207.5t103 245t36.5 272t-36.5 272t-103 245t-160 207.5t-207.5 160t-245 103t-272 36.5t-272 -36.5t-245 -103t-207.5 -160t-160 -207.5t-103 -244.5t-36.5 -272.5q0 -141 36.5 -272t103 -245t160 -207.5t207.5 -160
t244.5 -103t272.5 -36.5zM1833 640q-38 -81 -92 -152.5t-120 -130.5t-143 -105t-161 -75q36 50 65 106t51.5 115.5t38.5 120.5t28 121h333zM1920 1024q0 -133 -37 -256h-363q8 64 12 127.5t4 128.5t-4 128.5t-12 127.5h363q37 -123 37 -256zM1024 1920q49 0 91.5 -27
t78.5 -71t64.5 -99.5t50.5 -112.5t37 -110t23 -92h-690q8 39 23 92t37 110t50.5 112.5t64.5 99.5t78.5 71t91.5 27zM1391 1280q8 -64 12.5 -127.5t4.5 -128.5t-4.5 -128.5t-12.5 -127.5h-734q-8 64 -12.5 127.5t-4.5 128.5t4.5 128.5t12.5 127.5h734zM128 1024q0 133 37 256
h363q-8 -64 -12 -127.5t-4 -128.5t4 -128.5t12 -127.5h-363q-37 123 -37 256zM1024 128q-49 0 -91.5 27t-78.5 71t-64.5 99.5t-50.5 112.5t-37 110t-23 92h690q-8 -39 -23 -92t-37 -110t-50.5 -112.5t-64.5 -99.5t-78.5 -71t-91.5 -27zM731 177q-84 29 -161 75t-143 105
t-120 130.5t-92 152.5h333q12 -60 28 -121t38.5 -120.5t51.5 -115.5t65 -106zM215 1408q38 81 92 152.5t120 130.5t143 105t161 75q-36 -50 -65 -106t-51.5 -115.5t-38.5 -120.5t-28 -121h-333zM1317 1871q84 -29 161 -75t143 -105t120 -130.5t92 -152.5h-333
q-12 60 -28 121t-38.5 120.5t-51.5 115.5t-65 106z" />
</svg>
