<?xml version="1.0" standalone="no"?>
<!DOCTYPE svg PUBLIC "-//W3C//DTD SVG 1.1//EN" "http://www.w3.org/Graphics/SVG/1.1/DTD/svg11.dtd" >
<svg xmlns="http://www.w3.org/2000/svg" xmlns:xlink="http://www.w3.org/1999/xlink" version="1.1" viewBox="-10 0 2068 2048" width="18" height="18">
   <path fill="#000000"
d="M0 1408v-384h384v384h-384zM128 1152v128h128v-128h-128zM0 896v-384h384v384h-384zM128 640v128h128v-128h-128zM0 384v-384h384v384h-384zM128 128v128h128v-128h-128zM640 768v-128h1152v128h-1152zM1536 1152v128h-896v-128h896zM640 128h1408v128h-1408v-128z
M0 1920v-384h384v384h-384zM128 1664v128h128v-128h-128zM640 1792v-128h1152v128h-1152z" />
</svg>
