<?xml version="1.0" standalone="no"?>
<!DOCTYPE svg PUBLIC "-//W3C//DTD SVG 1.1//EN" "http://www.w3.org/Graphics/SVG/1.1/DTD/svg11.dtd" >
<svg xmlns="http://www.w3.org/2000/svg" xmlns:xlink="http://www.w3.org/1999/xlink" version="1.1" viewBox="-10 0 2058 2048" width="18" height="18">
   <path fill="#000000"
d="M1664 1152h-128v704q0 40 -15 75t-41 61t-61 41t-75 15t-75 -15t-61 -41t-41 -61t-15 -75v-704h-128v-128h256v-549l-128 -128v-347h384v347l-128 128v549h256v128zM1280 293l64 65l64 -65v-165h-128v165zM1408 1152h-128v704q0 26 19 45t45 19t45 -19t19 -45v-704z
M704 0q66 0 124 25.5t101.5 69t69 101.5t25.5 124q0 75 -34 142.5t-94 112.5v1281q0 40 -15 75t-41 61t-61 41t-75 15t-75 -15t-61 -41t-41 -61t-15 -75v-1281q-60 -45 -94 -112.5t-34 -142.5q0 -66 25 -124t68.5 -101.5t102 -69t124.5 -25.5zM768 504q28 -16 51.5 -34
t40.5 -39.5t26.5 -48.5t9.5 -62q0 -30 -9.5 -58t-26 -52t-40.5 -42t-52 -28v180l-64 64l-64 -64v-180q-29 10 -52.5 28t-40 42t-26 52t-9.5 58q0 35 9.5 62t26.5 48.5t40.5 39.5t51.5 34v1352q0 26 19 45t45 19t45 -19t19 -45v-1352z" />
</svg>
