<?xml version="1.0" standalone="no"?>
<!DOCTYPE svg PUBLIC "-//W3C//DTD SVG 1.1//EN" "http://www.w3.org/Graphics/SVG/1.1/DTD/svg11.dtd" >
<svg xmlns="http://www.w3.org/2000/svg" xmlns:xlink="http://www.w3.org/1999/xlink" version="1.1" viewBox="-10 0 2068 2048" width="18" height="18">
   <path fill="#000000"
d="M2048 384v1280h-2048v-1280h640v-128q0 -27 10 -50t27.5 -40.5t40.5 -27.5t50 -10h512q27 0 50 10t40.5 27.5t27.5 40.5t10 50v128h640zM768 384h512v-128h-512v128zM128 512v185l640 319v-120h512v120l640 -319v-185h-1792zM896 1024v128h256v-128h-256zM1920 1536v-697
l-640 321v120h-512v-120l-640 -321v697h1792z" />
</svg>
