<?xml version="1.0" standalone="no"?>
<!DOCTYPE svg PUBLIC "-//W3C//DTD SVG 1.1//EN" "http://www.w3.org/Graphics/SVG/1.1/DTD/svg11.dtd" >
<svg xmlns="http://www.w3.org/2000/svg" xmlns:xlink="http://www.w3.org/1999/xlink" version="1.1" viewBox="-10 0 2058 2048" width="18" height="18">
   <path fill="#000000"
d="M1765 640q-127 4 -240.5 35.5t-215 87t-192.5 132.5t-172 170q-34 39 -68 76t-72 72q-168 153 -372 238t-433 85v-128q131 0 248.5 -30.5t222.5 -86t198.5 -134t177.5 -174.5q35 -41 70.5 -79t75.5 -74q81 -72 170.5 -130t187 -99t202 -63.5t213.5 -25.5l-147 -147
l90 -90l302 301l-302 301l-90 -90zM805 836q-22 24 -42.5 48.5t-43.5 48.5q-74 -68 -157.5 -122.5t-174.5 -92.5t-188 -58t-199 -20v-128q229 0 433 85.5t372 238.5zM1709 1171l302 301l-302 301l-90 -90l147 -147q-110 -3 -215.5 -26t-203.5 -64.5t-188.5 -100.5
t-171.5 -133q22 -24 42.5 -48.5t43.5 -48.5q72 66 152 119t167.5 91t181 59t191.5 24l-146 -147z" />
</svg>
