<?xml version="1.0" standalone="no"?>
<!DOCTYPE svg PUBLIC "-//W3C//DTD SVG 1.1//EN" "http://www.w3.org/Graphics/SVG/1.1/DTD/svg11.dtd" >
<svg xmlns="http://www.w3.org/2000/svg" xmlns:xlink="http://www.w3.org/1999/xlink" version="1.1" viewBox="-10 0 2068 2048" width="18" height="18">
   <path fill="#000000"
d="M1024 0q141 0 272 36.5t245 103t207.5 160t160 207.5t103 245t36.5 272t-36.5 272t-103 245t-160 207.5t-207.5 160t-245 103t-272 36.5q-172 0 -330.5 -55t-289 -154.5t-226 -237.5t-140.5 -304l123 -34q40 145 123.5 265.5t197.5 207.5t253 135.5t289 48.5
q123 0 237.5 -32t214 -90.5t181.5 -140.5t140.5 -181.5t90.5 -213.5t32 -238q0 -123 -32 -237.5t-90.5 -214t-140.5 -181.5t-181.5 -140.5t-214 -90.5t-237.5 -32q-129 0 -251 36t-227.5 103t-190.5 161.5t-140 211.5h297v128h-512v-512h128v274q67 -123 163 -221
t212.5 -166.5t248.5 -105.5t272 -37z" />
</svg>
